<svg width="626" height="148" viewBox="0 0 626 148" fill="none" xmlns="http://www.w3.org/2000/svg">
<g clip-path="url(#clip0_1_4)">
<g clip-path="url(#clip1_1_4)">
<g clip-path="url(#clip2_1_4)">
<path d="M340.457 18.102C340.055 18.102 339.637 18.121 339.234 18.191C337.195 18.453 335.176 19.211 333.246 20.461C331.547 21.555 329.945 22.914 328.465 24.477C327.297 25.656 326.336 26.566 325.656 27.176C322.637 29.84 322.125 32.809 322.227 34.832C322.355 37.281 323.203 39.445 324.727 41.246C324.766 41.285 324.805 41.336 324.844 41.375C326.496 43.168 328.574 44.289 331.035 44.688C331.547 44.766 332.047 44.809 332.516 44.809C334.844 44.809 337.094 43.898 339.047 42.188C339.707 41.605 340.684 40.855 341.977 39.934C342.016 39.914 342.055 39.875 342.113 39.844C343.766 38.574 345.246 37.191 346.523 35.711C346.555 35.684 346.574 35.641 346.605 35.602C348.086 33.781 349.086 31.848 349.566 29.809C350.117 27.766 350.137 24.684 347.254 21.434C344.785 18.66 342.207 18.07 340.465 18.07L340.457 18.102ZM340.445 22.285C341.715 22.285 342.945 22.934 344.105 24.234C345.445 25.758 345.914 27.277 345.484 28.797C345.156 30.238 344.434 31.629 343.336 32.98C342.234 34.242 340.977 35.434 339.535 36.523C338.094 37.523 337.004 38.375 336.254 39.043C335.055 40.094 333.805 40.625 332.504 40.625C332.246 40.625 331.977 40.594 331.703 40.555C330.184 40.305 328.926 39.625 327.914 38.535C326.984 37.434 326.477 36.121 326.395 34.621C326.316 33.02 326.984 31.578 328.414 30.309C329.164 29.637 330.184 28.668 331.453 27.398C332.715 26.055 334.066 24.914 335.504 23.984C336.945 23.055 338.363 22.504 339.805 22.332C340.023 22.293 340.234 22.285 340.457 22.285" fill="black"/>
<path d="M255.355 81.949C258.633 79.18 261.734 76.238 264.594 73.176C265.594 72.125 266.605 71.074 267.625 70.004C267.184 72.133 266.496 74.176 265.586 76.137C265.586 76.145 265.562 76.176 265.555 76.188C264.656 78.188 263.523 79.918 262.164 81.34C261.203 82.352 260.184 82.859 258.973 82.961H258.523C257.516 82.961 256.414 82.801 255.355 81.918V81.949ZM80.371 66.629C82.742 64.578 85.09 62.777 87.363 61.297C87.93 60.918 88.48 60.578 89.012 60.266C87.07 64.188 84.5 66.07 78.621 68.25C79.203 67.699 79.793 67.16 80.383 66.629H80.371ZM420.297 78.648C420.816 77.367 421.418 76.277 422.086 75.438C422.098 75.406 422.117 75.395 422.137 75.367C427.309 68.543 432.605 63.328 437.898 59.895C439.879 58.625 441.906 57.715 443.996 57.113C443.969 57.176 443.926 57.215 443.898 57.266C440.746 61.887 437.477 65.898 433.605 69.941C428.445 75.316 422.977 79.348 419.918 80.117C419.977 79.68 420.105 79.18 420.297 78.648ZM177.062 0C173.395 0 169.613 1.27 165.824 3.773C162.133 6.266 158.422 9.605 154.742 13.719C151.262 17.652 147.773 22.195 144.402 27.215C141.152 32.07 138.062 36.992 135.164 41.836C134.562 42.855 133.953 43.887 133.371 44.898C127.043 49.691 119.934 52.941 111.75 56.703C111.48 56.824 111.223 56.945 110.953 57.066C111.57 53.551 111.352 50.25 110.273 47.289C109.262 44.176 107.523 41.676 105.141 39.812C102.801 37.852 99.953 36.742 96.684 36.504C96.184 36.453 95.652 36.422 95.141 36.422C92.41 36.422 89.531 37.133 86.562 38.523C84.141 39.695 81.832 41.047 79.691 42.535C78.621 40.203 76.91 38.445 74.742 37.402C73.402 36.742 71.98 36.414 70.52 36.414C69.453 36.414 68.359 36.582 67.293 36.953C65.711 37.473 64.371 38.414 63.293 39.766C60.422 42.445 48.039 53.352 32.43 57.285C20.07 60.406 9.379 60.438 8.941 60.438C3.781 60.457 0 64.078 0 69.062C0 74.047 4.238 79.617 11.352 79.617C15.18 79.617 32.371 79.227 49.082 72.652C47.359 76.977 45.621 81.281 43.93 85.434C41.73 90.836 39.223 96.199 36.562 101.863C31.801 112.047 26.879 122.566 23.941 133.242C23.941 133.293 23.922 133.332 23.902 133.383C22.891 137.605 24.66 140.215 25.84 141.438C27.48 143.207 29.551 144.297 31.98 144.699C32.609 144.809 33.27 144.859 33.902 144.859C35.562 144.859 37.211 144.508 38.832 143.797C41.48 142.727 43.332 140.688 44.223 137.844C49.52 123.246 55.609 108.938 60.871 96.84C61.352 95.789 61.82 94.688 62.312 93.527C62.77 93.566 63.223 93.598 63.723 93.598C67.93 93.598 75.91 92.305 100.59 82.18C103.492 80.988 106.57 79.82 109.844 78.566C111.871 77.797 113.922 77.016 115.973 76.215C114.172 79.098 112.07 81.949 109.73 84.68C108.133 86.574 107.332 88.926 107.332 91.715C107.332 94.246 107.953 96.527 109.191 98.539C110.523 100.871 112.66 102.402 115.363 103.012C115.973 103.172 116.613 103.254 117.254 103.254C119.582 103.254 121.961 102.254 124.512 100.191C126.172 98.891 127.742 97.48 129.141 95.977L131.223 93.758L133.133 91.727C135.891 88.973 139.031 86.582 142.473 84.59C142.48 84.59 142.512 84.562 142.523 84.551C143.473 83.98 144.414 83.43 145.352 82.891C145.273 83.621 145.203 84.332 145.184 85.062V85.262C145.184 87.441 145.574 89.586 146.324 91.645C146.324 91.676 146.332 91.688 146.352 91.715C147.262 94.059 148.902 96 151.234 97.488C154.043 99.41 156.781 100.383 159.352 100.383C159.754 100.383 160.172 100.359 160.574 100.312C163.012 100.09 165.723 99.27 168.863 97.801C168.895 97.781 168.934 97.77 168.953 97.758C171.781 96.34 174.594 94.738 177.324 92.977C178.102 92.465 178.871 91.957 179.633 91.426C181.543 94.898 184.742 97.059 188.922 97.648C189.652 97.758 190.402 97.809 191.172 97.809C194.285 97.809 197.785 97 201.832 95.34C200.934 96.41 200.043 97.5 199.152 98.621C199.125 98.66 199.102 98.691 199.074 98.73C196.734 101.852 194.562 105.023 192.652 108.164C192.625 108.207 192.613 108.246 192.582 108.285C190.582 111.816 189.312 114.898 188.715 117.711C188.715 117.742 188.715 117.762 188.703 117.793C187.973 121.523 188.441 124.656 190.082 127.129C191.684 129.539 193.973 131.102 196.703 131.68C197.523 131.879 198.383 131.969 199.254 131.969C201.055 131.969 202.922 131.531 204.785 130.648C207.562 129.469 209.922 127.359 211.805 124.375C214.453 120.133 217.172 115.852 219.863 111.637C221.453 109.246 223.004 106.676 224.484 103.992C227.633 102.133 235.145 97.609 239.824 94.566C242.215 97.328 245.055 99.512 248.285 101.102C251.184 102.512 254.344 103.223 257.703 103.223C259.766 103.223 261.934 102.953 264.156 102.414C267.746 101.582 271.664 100.051 275.766 97.871C277.164 97.141 278.633 96.367 280.125 95.598C285.633 92.746 291.266 89.844 296.703 86.703C296.676 87.242 296.676 87.785 296.703 88.305C296.715 90.957 297.375 93.418 298.656 95.629C300.086 98.09 302.426 99.941 305.645 101.121C307.164 101.691 308.836 101.98 310.594 101.98C312.047 101.98 313.594 101.781 315.195 101.383C318.227 100.621 321.414 99.352 324.656 97.578C327.797 95.867 330.957 93.797 334.074 91.387C336.566 89.465 338.945 87.512 341.156 85.57C341.406 88.062 342.094 90.363 343.215 92.457C343.215 92.465 343.227 92.496 343.246 92.508C344.945 95.59 347.617 97.93 351.137 99.492C353.766 100.68 356.848 101.281 360.316 101.281C361.426 101.281 362.574 101.23 363.766 101.113C367.586 100.73 371.535 99.75 375.508 98.18C379.305 96.668 383.035 94.879 386.555 92.848C390.156 90.746 393.586 88.492 396.816 86.133C396.828 86.121 396.855 86.113 396.867 86.094C397.727 85.453 398.566 84.801 399.387 84.18C399.367 88.836 400.945 92.707 404.066 95.75C406.508 98.191 409.176 99.949 412.008 101C413.617 101.582 415.316 101.863 417.098 101.863C418.867 101.863 420.855 101.551 422.875 100.961C422.938 100.953 422.988 100.93 423.035 100.91C426.535 99.711 429.848 98.121 432.898 96.199C434.238 95.359 435.586 94.488 436.918 93.598C436.926 93.637 436.957 93.688 436.969 93.727C436.996 93.785 437.027 93.836 437.035 93.898C438.746 97.301 441.129 98.648 442.828 99.18C442.887 99.211 442.957 99.219 443.008 99.242C444.078 99.52 445.188 99.66 446.328 99.66C448.105 99.66 449.969 99.309 451.855 98.609C454.449 97.648 457.016 96.289 459.488 94.578C461.836 92.945 464.027 91.156 466.039 89.266C466.859 88.504 467.609 87.805 468.309 87.133C468.348 88.055 468.426 88.965 468.559 89.883C468.969 93.246 470.078 96.219 471.797 98.711C473.188 100.703 475.848 103.094 480.688 103.094C481.117 103.094 481.578 103.074 482.039 103.031C486.527 102.664 491.387 101.301 496.449 99.012C496.469 99.012 496.488 99 496.508 98.98C501.297 96.719 506.066 94.016 510.688 90.977C515.387 87.832 519.789 84.492 523.777 81.008C527.809 77.578 531.289 74.316 534.078 71.352C534.117 71.312 534.168 71.254 534.207 71.203C535.457 69.73 536.488 68.133 537.238 66.449C538.109 64.648 538.68 61.699 536.648 57.805C536.609 57.734 536.578 57.676 536.539 57.613C534.238 53.711 531.348 52.891 529.328 52.891H529.027C526.719 52.922 524.59 53.664 522.707 55.125C521.09 56.293 519.5 57.613 517.969 59.047C516.578 60.258 515.199 61.457 513.828 62.59C511.469 64.527 509.059 66.52 506.598 68.543C504.34 70.395 501.898 72.254 499.387 74.047C497.02 75.707 494.469 77.277 491.84 78.719C491.348 78.977 490.867 79.227 490.367 79.469C490.559 78.328 490.867 77.156 491.277 75.965C493.379 74.625 495.906 72.844 498.977 70.582C502.656 67.93 506.547 64.82 510.5 61.387C514.508 57.984 518.508 54.281 522.359 50.43C526.367 46.418 529.867 42.375 532.77 38.414C535.77 34.32 538.008 30.27 539.391 26.367C541.117 21.824 541.219 17.672 539.719 13.969C538.828 11.738 537.738 10.008 536.387 8.656C535.008 7.273 533.387 6.285 531.598 5.754C530.258 5.254 528.797 5.012 527.27 5.012C527.008 5.012 526.738 5.012 526.469 5.031C525.02 5.031 523.418 5.133 521.738 5.324C517.887 5.754 513.93 7.586 509.949 10.777C506.406 13.668 502.898 17.281 499.438 21.531C496.078 25.586 492.738 30.199 489.547 35.211C487.848 37.824 486.156 40.586 484.496 43.418C482.977 45.109 473.598 54.652 466.727 61.629C474.008 51.41 476.809 45.988 474.789 42.027C473.367 39.254 468.906 37.984 465.336 37.984C464.129 37.984 462.898 38.125 461.707 38.375C460.859 37.812 459.898 37.395 458.848 37.113C456.078 36.332 452.848 35.91 449.488 35.91C446.117 35.91 442.789 36.312 439.836 37.094C433.719 38.703 427.926 40.516 419.098 46.398C418.965 46.477 418.855 46.559 418.746 46.66L418.727 46.688C418.188 47.039 417.016 47.758 415.547 48.66C410.418 51.801 400.875 57.656 395.125 62.27C394.227 62.977 392.777 64.027 391.215 65.148C389.805 66.172 388.336 67.223 387.008 68.23C384.375 70.223 381.555 72.062 378.605 73.746C375.727 75.438 372.766 76.875 369.777 78.059C367.234 79.098 364.777 79.738 362.426 80C363.316 78.238 364.527 76.348 366.035 74.387C366.047 74.355 366.066 74.344 366.074 74.316C367.637 72.215 369.375 70.191 371.246 68.32C373.066 66.5 374.957 64.941 376.895 63.68C378.598 62.566 380.234 61.848 381.785 61.508C381.984 61.477 382.195 61.469 382.418 61.469C382.836 61.469 383.285 61.527 383.785 61.617C385.215 61.898 386.625 62.098 387.977 62.199H388.266C390.047 62.199 391.695 61.859 393.168 61.188C393.215 61.156 393.258 61.148 393.316 61.117C395.336 60.105 396.836 58.207 397.797 55.465C398.777 52.652 398.695 50.129 397.566 47.98C396.586 46.039 395.105 44.547 393.168 43.547C391.598 42.656 389.855 42.055 387.984 41.715C386.316 41.414 384.758 41.273 383.328 41.273C378.918 41.273 374.586 42.305 370.496 44.355C369.234 44.949 367.984 45.617 366.734 46.359L366.414 46.508C359.645 49.648 345.555 56.176 324.797 73.234C324.426 73.535 324.066 73.824 323.707 74.113C323.746 74.055 323.785 74.004 323.824 73.934C323.836 73.914 323.844 73.895 323.867 73.875C325.395 71.754 327.016 69.711 328.637 67.742C330.457 65.578 332.234 63.258 333.906 60.887C336.086 57.875 336.176 55.062 335.875 53.23C335.465 50.742 334.266 48.641 332.426 47.16C330.684 45.617 328.496 44.816 326.047 44.789H325.664C323.996 44.789 321.523 45.266 319.074 47.527C303.504 57.016 294.176 62.719 288.566 66.219C288.684 64.879 288.734 63.52 288.734 62.156V62.047C288.656 58.766 288.734 55.504 288.984 52.391C289.273 49.441 289.953 46.598 290.977 43.945C292.074 41.215 292.254 38.484 291.484 35.801C290.746 33.211 289.426 31.148 287.586 29.668C285.953 28.289 284.004 27.578 281.914 27.578C281.285 27.578 280.625 27.648 279.965 27.777C277.266 28.266 274.875 30.137 272.906 33.34C268.766 39.812 263.926 45.988 258.484 51.66C253.016 57.387 247.344 62.977 241.645 68.273C241.234 68.621 240.695 69.07 240.016 69.684C241.074 67.34 242.164 65.008 243.285 62.719C243.293 62.68 243.324 62.637 243.336 62.598C243.926 61.266 244.613 59.938 245.355 58.664C246.363 57.094 247.254 55.465 247.992 53.793C249.215 51.211 249.562 48.719 249.055 46.387C248.594 43.965 247.395 41.957 245.562 40.586C243.914 39.344 241.973 38.715 239.805 38.715C239.594 38.715 239.363 38.715 239.133 38.723C236.742 38.875 234.402 39.953 232.164 41.934C230.434 43.477 228.645 45.309 226.855 47.367C226.824 47.398 226.812 47.43 226.785 47.449C225.184 49.391 223.543 51.371 221.855 53.391C221.844 53.414 221.812 53.434 221.805 53.453C219.492 56.355 217.262 59.047 215.195 61.438C213.234 63.73 211.102 65.891 208.914 67.859C206.773 69.691 204.312 71.402 201.613 72.953C201.602 72.953 201.594 72.965 201.574 72.984C201.223 73.184 200.863 73.383 200.504 73.586C200.914 72.652 201.363 71.734 201.844 70.805C204.023 66.691 206.234 62.988 208.402 59.855C208.414 59.828 208.422 59.816 208.445 59.785C208.992 58.965 209.703 58.074 210.562 57.145C211.812 55.805 212.902 54.414 213.793 53.023C213.824 52.98 213.832 52.961 213.863 52.922C214.992 51.031 215.574 49.078 215.605 47.09C215.684 45.328 215.172 42.727 212.383 40.105C212.352 40.074 212.312 40.043 212.293 40.016C210.242 38.215 208.062 37.301 205.812 37.301C205.484 37.301 205.145 37.324 204.824 37.363C202.773 37.633 200.852 38.484 199.082 39.875C197.734 40.926 196.395 42.297 195.152 43.945C194.203 45.258 193.395 46.359 192.723 47.289C189.875 51.172 187.383 55.035 185.344 58.746C185.062 59.207 184.773 59.645 184.473 60.125C183.453 61.648 181.973 63.379 180.082 65.281C178.203 67.18 176.074 69.051 173.773 70.883C173.684 70.953 173.582 71.012 173.504 71.082C174.082 70.191 174.664 69.301 175.254 68.441C175.273 68.422 175.281 68.391 175.312 68.371C176.645 66.332 177.863 64.258 178.934 62.199C180.305 59.586 180.734 57.016 180.223 54.531C179.793 52 178.602 49.898 176.773 48.441C175.531 47.348 174.031 46.598 172.352 46.27C174.055 44.879 175.715 43.516 177.305 42.176C177.312 42.156 177.344 42.145 177.352 42.137C180.344 39.492 182.941 36.891 185.082 34.402C186.543 32.75 187.863 30.84 189.012 28.719C190.164 26.605 191.055 24.395 191.645 22.164C192.332 19.902 192.684 17.629 192.684 15.418C192.773 12.848 192.305 10.488 191.281 8.387C190.281 6.074 188.672 4.172 186.504 2.73C184.422 1.352 181.723 0.469 178.523 0.148H178.441C178.023 0.109 177.594 0.09 177.164 0.09L177.062 0ZM258.543 87.164C258.785 87.164 259.016 87.164 259.266 87.133C261.543 86.961 263.535 85.992 265.215 84.223C266.895 82.449 268.293 80.348 269.383 77.898C270.574 75.367 271.406 72.695 271.914 69.922C272.516 67.141 272.805 64.609 272.805 62.328V58.656C269.016 62.527 265.254 66.422 261.543 70.305C257.902 74.176 253.953 77.816 249.645 81.199C251.633 85.184 254.594 87.172 258.543 87.172M65.191 77.016C82.832 71.363 89.562 70.312 93.66 60.055C94.422 58.375 94.812 56.895 94.812 55.625C94.812 54.723 94.312 54.262 93.332 54.262C92.941 54.262 92.453 54.332 91.902 54.484C89.883 54.992 87.59 56.086 85.062 57.766C82.613 59.367 80.121 61.266 77.602 63.457C75.152 65.66 72.832 67.973 70.641 70.422C68.441 72.793 66.633 74.984 65.199 77.008M418.965 84.43C424.918 84.43 433.836 75.727 436.605 72.836C440.656 68.621 444.039 64.449 447.328 59.637C448.719 57.605 449.699 54.523 450.547 52.184H449.719C444.719 52.184 440.008 53.582 435.598 56.395C429.867 60.105 424.258 65.59 418.777 72.844C417.848 74.035 417.035 75.457 416.367 77.156C415.777 78.758 415.559 80.238 415.738 81.59C415.816 82.77 416.105 83.52 416.625 83.859C417.328 84.262 418.117 84.441 418.977 84.441M498.129 52.082C500.578 49.969 503.188 47.609 505.977 44.988C508.77 42.285 511.34 39.586 513.699 36.883C516.148 34.09 518.207 31.438 519.91 28.906C521.68 26.297 522.77 24.004 523.188 22.074C520.918 23.164 518.387 25.195 515.598 28.148C512.816 31.008 510.027 34.43 507.238 38.402C505.559 40.676 503.906 43.008 502.309 45.367C500.789 47.641 499.398 49.871 498.129 52.07M156.363 38.133C158.812 36.113 161.262 34.082 163.691 32.059C166.145 29.949 168.383 27.926 170.395 25.984C171.582 24.887 172.672 23.574 173.684 22.074C174.773 20.551 175.531 19.203 175.953 18.02C175.953 17.75 175.902 17.609 175.793 17.609C175.762 17.609 175.742 17.609 175.703 17.641C173.762 18.652 171.484 20.512 168.863 23.215C166.332 25.824 163.723 28.828 161.012 32.211C160.172 33.219 159.371 34.23 158.613 35.25C157.852 36.262 157.094 37.234 156.332 38.164M177.113 4.191C177.422 4.191 177.742 4.191 178.055 4.234C180.582 4.484 182.613 5.113 184.121 6.125C185.645 7.133 186.734 8.445 187.402 10.047C188.164 11.566 188.512 13.289 188.414 15.238C188.414 17.102 188.125 19 187.523 20.941C187.012 22.875 186.262 24.773 185.254 26.637C184.242 28.496 183.102 30.137 181.832 31.578C179.812 33.93 177.363 36.383 174.504 38.914C171.633 41.363 168.555 43.855 165.273 46.387C161.984 48.84 158.531 51.293 154.895 53.723C151.262 56.176 147.641 58.535 144.012 60.828L139.441 68.422C142.652 66.73 145.852 65.039 149.062 63.359C152.273 61.578 155.352 59.637 158.301 57.535C159.484 56.605 160.652 55.676 161.844 54.754C163.023 53.742 164.203 52.773 165.371 51.84C166.871 50.742 168.344 50.18 169.754 50.18H170.043C171.652 50.18 172.953 50.641 173.961 51.57C175.062 52.422 175.742 53.645 175.992 55.242C176.332 56.766 176.031 58.414 175.102 60.188C174.094 62.129 172.953 64.07 171.691 66.02C170.422 67.883 169.203 69.773 168.012 71.715C166.922 73.496 165.902 75.297 164.973 77.156C164.043 79.02 163.113 80.91 162.191 82.852C164.121 82.102 166.324 80.91 168.773 79.309C171.305 77.707 173.793 75.965 176.234 74.113C178.684 72.176 180.922 70.191 182.941 68.16C185.055 66.051 186.691 64.109 187.875 62.328C188.215 61.809 188.531 61.297 188.863 60.785C190.812 57.215 193.191 53.492 196.004 49.66C196.684 48.73 197.484 47.641 198.414 46.379C199.422 45.027 200.484 43.926 201.574 43.086C202.762 42.156 203.984 41.605 205.254 41.445C205.414 41.434 205.574 41.414 205.734 41.414C206.934 41.414 208.172 41.977 209.434 43.086C210.785 44.355 211.414 45.617 211.332 46.887C211.332 48.148 210.953 49.422 210.195 50.68C209.434 51.871 208.504 53.051 207.402 54.223C206.395 55.312 205.543 56.375 204.875 57.387C202.602 60.676 200.312 64.488 198.035 68.781C195.844 72.996 194.324 77.086 193.492 81.059C197.363 79.719 200.742 78.188 203.613 76.496C206.555 74.816 209.223 72.953 211.574 70.922C213.945 68.812 216.172 66.531 218.273 64.078C220.395 61.629 222.625 58.938 224.984 55.973C226.664 53.953 228.312 51.961 229.914 50.02C231.605 48.09 233.254 46.387 234.855 44.957C236.375 43.617 237.844 42.887 239.285 42.805H239.703C240.953 42.805 242.043 43.145 242.945 43.828C243.953 44.586 244.586 45.688 244.844 47.117C245.176 48.559 244.926 50.16 244.086 51.922C243.414 53.441 242.605 54.914 241.684 56.355C240.832 57.797 240.074 59.258 239.402 60.785C236.875 66.02 234.465 71.344 232.195 76.738L229.734 82.379C229.863 82.27 230.016 82.16 230.164 82.059C230.832 81.641 231.844 80.969 233.203 80.039C234.543 79.027 235.945 77.969 237.375 76.875C238.812 75.766 240.203 74.715 241.543 73.703C242.812 72.605 243.734 71.812 244.336 71.293C250.152 65.898 255.855 60.285 261.402 54.465C267.062 48.559 272.035 42.227 276.344 35.48C277.695 33.289 279.133 32.059 280.656 31.809C281.055 31.73 281.445 31.68 281.805 31.68C282.926 31.68 283.934 32.059 284.824 32.828C286.004 33.762 286.844 35.102 287.355 36.883C287.863 38.664 287.734 40.465 286.977 42.324C285.793 45.367 285.035 48.57 284.703 51.953C284.445 55.234 284.363 58.617 284.445 62.078C284.445 64.27 284.273 66.422 283.934 68.523C283.676 70.543 283.305 72.605 282.805 74.707V74.715C283.453 73.953 321.535 50.789 321.535 50.789C322.797 49.531 324.145 48.879 325.574 48.879H325.844C327.367 48.879 328.625 49.34 329.637 50.27C330.734 51.109 331.414 52.281 331.656 53.801C331.906 55.332 331.477 56.855 330.387 58.355C328.785 60.637 327.105 62.828 325.324 64.941C323.645 66.961 321.996 69.07 320.395 71.273C318.785 73.383 317.305 75.617 315.965 77.977C314.613 80.25 313.477 82.742 312.547 85.453C314.996 84.52 317.484 83.25 320.016 81.648C322.547 80.047 324.996 78.277 327.344 76.336C348.246 59.156 362.246 52.883 368.598 49.93C369.777 49.219 370.984 48.559 372.227 47.98C375.766 46.199 379.438 45.328 383.234 45.328C384.418 45.328 385.727 45.449 387.156 45.699C388.586 45.957 389.895 46.418 391.066 47.09C392.258 47.68 393.137 48.57 393.715 49.742C394.305 50.84 394.305 52.23 393.715 53.914C393.125 55.594 392.336 56.703 391.305 57.203C390.375 57.613 389.336 57.836 388.145 57.836C386.965 57.754 385.734 57.574 384.477 57.324C383.715 57.176 382.977 57.094 382.297 57.094C381.828 57.094 381.375 57.133 380.938 57.203C378.824 57.613 376.668 58.547 374.484 59.988C372.297 61.426 370.188 63.148 368.164 65.191C366.145 67.199 364.285 69.363 362.598 71.645C360.906 73.844 359.547 75.957 358.547 77.977C357.785 79.5 357.234 80.719 356.895 81.648C356.566 82.5 356.527 83.129 356.777 83.551C357.035 83.891 357.586 84.102 358.414 84.18C358.707 84.211 359.027 84.223 359.387 84.223C360.117 84.223 361.016 84.172 362.074 84.051C365.027 83.789 368.066 83.039 371.195 81.77C374.395 80.508 377.516 78.988 380.555 77.207C383.676 75.438 386.625 73.496 389.418 71.383C392.195 69.262 395.785 66.832 397.617 65.359C404.875 59.547 418.516 51.613 420.969 49.969C421.078 49.891 421.188 49.82 421.309 49.73C429.316 44.379 434.559 42.617 440.777 40.984C443.387 40.305 446.387 39.934 449.367 39.934C452.336 39.934 455.129 40.273 457.629 40.984C458.867 41.316 459.816 41.945 460.508 42.875C462.199 42.254 463.809 42.016 465.227 42.016C468.406 42.016 470.656 43.188 470.938 43.766C473.059 47.938 455.766 68.172 452.949 73.523C452.188 74.867 451.469 76.266 450.789 77.695C450.117 79.039 449.527 80.27 449.016 81.371L449.527 82.121C451.898 80.859 453.828 79.629 455.348 78.449C456.957 77.188 458.398 75.875 459.656 74.523C460.926 73.184 486.598 47.25 487.789 45.727L487.797 45.719C489.43 42.926 491.137 40.125 492.969 37.301C496.09 32.398 499.289 27.969 502.59 24.004C505.867 19.953 509.168 16.582 512.449 13.879C515.828 11.176 519.027 9.664 522.07 9.336C523.68 9.156 525.16 9.074 526.5 9.074C526.73 9.066 526.949 9.047 527.16 9.047C528.25 9.047 529.25 9.227 530.16 9.574C531.348 9.906 532.398 10.547 533.32 11.477C534.25 12.398 535.059 13.707 535.73 15.391C536.84 18.102 536.699 21.223 535.359 24.766C534.09 28.309 532.07 31.98 529.289 35.781C526.5 39.574 523.16 43.418 519.289 47.297C515.488 51.102 511.617 54.684 507.648 58.066C503.77 61.438 500.02 64.43 496.379 67.062C492.848 69.672 489.977 71.664 487.789 73.004C486.859 75.207 486.27 77.355 486.008 79.469C485.746 81.488 485.547 83.641 485.379 85.922C488.238 84.91 491.027 83.691 493.727 82.25C496.52 80.719 499.168 79.078 501.699 77.309C504.309 75.445 506.797 73.543 509.168 71.605C511.617 69.594 514.008 67.59 516.379 65.66C517.82 64.469 519.25 63.25 520.688 61.977C522.129 60.637 523.59 59.406 525.117 58.305C526.297 57.375 527.609 56.914 529.027 56.914H529.219C530.578 56.914 531.777 57.805 532.828 59.586C533.84 61.527 534.008 63.168 533.34 64.527C532.75 65.871 531.949 67.141 530.93 68.32C528.219 71.191 524.898 74.316 520.93 77.695C517.047 81.07 512.828 84.281 508.277 87.324C503.809 90.273 499.25 92.855 494.617 95.047C489.977 97.168 485.629 98.391 481.598 98.73C481.258 98.75 480.918 98.77 480.598 98.77C478.148 98.77 476.328 97.91 475.137 96.199C473.789 94.258 472.938 91.926 472.609 89.234C472.27 86.523 472.27 83.789 472.609 81.008C472.926 78.336 473.328 76.305 473.797 74.875C473.559 75.145 473.316 75.438 473.078 75.707C471.297 77.637 469.539 79.578 467.758 81.531C466.578 82.801 465.016 84.32 463.078 86.094C461.219 87.875 459.199 89.516 457.008 91.035C454.816 92.555 452.578 93.746 450.309 94.578C448.879 95.109 447.516 95.379 446.227 95.379C445.445 95.379 444.707 95.277 443.977 95.086C442.637 94.676 441.527 93.605 440.695 91.926C439.945 90.246 439.348 88.543 438.918 86.863C436.219 88.883 433.426 90.785 430.566 92.555C427.777 94.336 424.785 95.77 421.578 96.867C419.938 97.348 418.418 97.598 416.988 97.598C415.695 97.598 414.488 97.391 413.355 96.988C411.078 96.137 408.926 94.719 406.898 92.676C404.445 90.316 403.316 87.242 403.477 83.441C403.676 80.277 404.488 76.977 405.855 73.543C404.805 74.355 403.758 75.215 402.695 76.105C400.168 78.129 397.336 80.32 394.215 82.691C391.098 84.961 387.805 87.121 384.355 89.152C380.977 91.094 377.477 92.785 373.855 94.219C370.227 95.656 366.688 96.527 363.227 96.867C362.176 96.98 361.164 97.027 360.195 97.027C357.305 97.027 354.816 96.559 352.727 95.598C350.027 94.418 348.047 92.695 346.777 90.406C345.516 88.035 344.965 85.301 345.137 82.18C345.316 80.039 345.855 77.828 346.734 75.566C344.664 77.266 342.195 79.199 339.625 81.16C337.094 83.43 334.344 85.723 331.395 87.992C328.457 90.273 325.496 92.207 322.547 93.828C319.594 95.43 316.773 96.57 314.066 97.25C312.805 97.57 311.605 97.719 310.484 97.719C309.227 97.719 308.066 97.52 306.984 97.109C304.715 96.258 303.113 95.039 302.184 93.438C301.254 91.836 300.793 90.055 300.793 88.113C300.715 86.094 301.016 83.98 301.684 81.789C302.047 80.418 302.465 79.066 302.945 77.746C293.824 83.871 283.125 89.152 273.703 94.066C269.914 96.09 266.375 97.488 263.074 98.238C261.176 98.699 259.344 98.93 257.613 98.93C254.883 98.93 252.363 98.359 250.035 97.23C246.242 95.379 243.125 92.547 240.676 88.754C239.414 89.926 225.902 98.191 221.262 100.871C219.715 103.734 218.055 106.535 216.262 109.266C213.555 113.488 210.863 117.75 208.152 122.062C206.715 124.336 204.992 125.898 202.965 126.746C201.633 127.379 200.352 127.707 199.145 127.707C198.594 127.707 198.055 127.637 197.523 127.496C195.844 127.168 194.484 126.238 193.473 124.715C192.465 123.195 192.215 121.133 192.723 118.512C193.234 116.152 194.363 113.398 196.145 110.277C197.992 107.234 200.055 104.203 202.344 101.16C204.703 98.219 207.062 95.43 209.434 92.805C211.883 90.094 213.902 87.902 215.504 86.223C216.094 84.871 216.613 83.691 217.023 82.68C217.535 81.59 217.992 80.559 218.414 79.629L216.773 80.898C210.602 85.801 205.254 89.203 200.703 91.156C196.965 92.746 193.762 93.559 191.094 93.559C190.512 93.559 189.965 93.516 189.441 93.445C186.492 93.027 184.383 91.586 183.113 89.145C182.484 87.785 182.094 86.203 181.941 84.453C179.805 86.094 177.492 87.742 174.973 89.395C172.363 91.074 169.691 92.598 167.004 93.945C164.301 95.207 161.984 95.93 160.051 96.098C159.793 96.129 159.531 96.16 159.281 96.16C157.531 96.16 155.602 95.418 153.473 93.945C151.863 92.938 150.762 91.676 150.184 90.145C149.594 88.543 149.293 86.902 149.293 85.211C149.371 83.43 149.633 81.711 150.051 80.008C150.562 78.238 151.062 76.625 151.574 75.207L151.691 74.574C147.891 76.508 144.102 78.629 140.301 80.898C136.512 83.09 133.094 85.703 130.051 88.754C128.703 90.195 127.352 91.617 126.004 93.055C124.73 94.406 123.352 95.668 121.832 96.859C120.051 98.281 118.504 99.012 117.172 99.012C116.852 99.012 116.551 98.969 116.262 98.891C114.66 98.551 113.473 97.699 112.723 96.359C111.871 95.008 111.453 93.445 111.453 91.676C111.453 89.895 111.91 88.465 112.844 87.363C115.371 84.41 117.602 81.371 119.543 78.246C121.48 75.125 123.422 71.785 125.371 68.242C125.523 67.98 125.664 67.699 125.82 67.43C116.922 71.594 107.121 74.895 98.941 78.246C77.422 87.082 68.18 89.355 63.652 89.355C61.652 89.355 60.57 88.895 59.762 88.375C58.84 90.824 57.91 93.055 56.98 95.078C51.039 108.734 45.27 122.465 40.18 136.453C39.672 138.145 38.66 139.285 37.141 139.875C36.039 140.367 34.941 140.617 33.832 140.617C33.422 140.617 33 140.574 32.602 140.504C31.07 140.254 29.812 139.586 28.801 138.496C27.789 137.484 27.492 136.082 27.91 134.312C32.34 118.281 41.449 102.441 47.73 86.984C49.59 82.43 51.449 77.828 53.312 73.184C54.402 70.312 55.539 67.531 56.723 64.82C56.832 64.578 56.941 64.34 57.051 64.109C37.82 75.395 13.07 75.395 11.281 75.395C3 75.395 1.512 64.609 8.922 64.609C11.582 64.609 21.871 64.238 33.441 61.316C49.812 57.184 62.793 45.969 66.391 42.566C66.98 41.754 67.723 41.195 68.609 40.895C69.25 40.676 69.902 40.574 70.52 40.574C71.34 40.574 72.141 40.754 72.91 41.145C74.352 41.824 75.402 43.008 76.07 44.688C76.832 46.297 76.793 48.27 75.953 50.641C77.891 49.039 79.871 47.52 81.902 46.078C83.922 44.637 86.07 43.375 88.352 42.285C90.762 41.145 93.031 40.574 95.141 40.574C95.531 40.574 95.941 40.586 96.312 40.625C98.762 40.805 100.82 41.594 102.523 43.035C104.293 44.379 105.562 46.238 106.312 48.609C107.16 50.883 107.32 53.453 106.82 56.336C106.57 57.855 106.113 59.387 105.441 60.906C104.762 62.43 104 63.91 103.16 65.328C116.453 58.805 127.121 55.043 136.594 47.668C137.301 46.438 138.031 45.207 138.773 43.938C141.641 39.133 144.684 34.312 147.883 29.496C151.164 24.605 154.504 20.262 157.883 16.469C161.344 12.586 164.762 9.504 168.133 7.234C171.242 5.184 174.223 4.164 177.062 4.164" fill="black"/>
<path d="M550.617 3.26199V17.441H565.648V44.098H583.121V17.441H588.281C592.52 26.324 596.758 35.211 601 44.098H606.77L612.34 32.34L598.508 3.26199H550.617Z" fill="black"/>
<path d="M608.281 3.26199L605.828 8.37499L603.41 3.26199H608.281Z" fill="black"/>
<path d="M614.211 3.26199L608.781 14.57L606.879 10.566L610.379 3.26199H614.211Z" fill="black"/>
<path d="M620.078 3.26199L611.719 20.773L609.828 16.781L616.289 3.26199H620.078Z" fill="black"/>
<path d="M626 3.26199L614.668 26.988L612.77 22.984L622.211 3.26199H626Z" fill="black"/>
<path d="M304.676 137.562H308.746V146.93H301.453C299.156 146.93 297.195 146.488 295.535 145.609C293.895 144.738 292.625 143.457 291.746 141.785C290.855 140.117 290.426 138.133 290.426 135.832V124.055H284.723V121.645L298.633 106.805H300.816V115.891H308.566V124.055H301.094V134C301.094 135.121 301.406 135.984 302.035 136.613C302.664 137.254 303.543 137.562 304.645 137.562H304.676ZM271.746 127.438C272.555 127.578 273.113 127.688 273.434 127.758C273.766 127.809 274.324 127.93 275.133 128.137C275.945 128.316 276.523 128.488 276.883 128.617C277.246 128.758 277.773 128.969 278.453 129.277C279.145 129.59 279.664 129.898 280.004 130.199C280.355 130.5 280.754 130.898 281.246 131.379C281.723 131.859 282.074 132.359 282.305 132.902C282.535 133.441 282.734 134.082 282.914 134.82C283.086 135.582 283.164 136.371 283.164 137.215C283.164 140.465 281.914 143.078 279.406 145.027C276.895 146.988 273.574 147.969 269.426 147.969C265.285 147.969 261.895 146.961 259.453 144.93C257.023 142.898 255.766 140.176 255.684 136.762H266.035C266.035 137.844 266.363 138.664 267.016 139.246C267.664 139.824 268.523 140.105 269.605 140.105C270.453 140.105 271.164 139.887 271.754 139.477C272.344 139.055 272.645 138.465 272.645 137.695C272.645 137.113 272.383 136.645 271.863 136.254C271.355 135.871 270.766 135.594 270.113 135.422C269.465 135.242 268.543 135.07 267.324 134.863C266.113 134.684 265.094 134.492 264.242 134.293C263.395 134.102 262.434 133.762 261.312 133.281C260.195 132.789 259.305 132.23 258.633 131.582C257.965 130.941 257.383 130.051 256.883 128.938C256.383 127.836 256.145 126.547 256.145 125.098C256.145 121.984 257.355 119.504 259.766 117.641C262.176 115.789 265.375 114.859 269.363 114.859C273.344 114.859 276.473 115.832 278.875 117.762C281.273 119.703 282.484 122.266 282.523 125.445H272.523C272.523 124.445 272.223 123.707 271.633 123.195C271.043 122.695 270.246 122.434 269.254 122.434C268.363 122.434 267.676 122.656 267.152 123.074C266.645 123.484 266.375 124.055 266.375 124.746C266.375 125.156 266.496 125.527 266.754 125.836C266.996 126.137 267.426 126.387 268.016 126.586C268.605 126.777 269.113 126.938 269.562 127.047C270.004 127.168 270.723 127.297 271.715 127.449L271.746 127.438Z" fill="black"/>
<path d="M329.023 147.969C324.426 147.969 320.734 146.66 317.945 144.039C315.145 141.418 313.746 137.934 313.746 133.602V115.891H324.426V133.141C324.426 134.781 324.836 136.082 325.637 136.992C326.445 137.914 327.566 138.363 329.004 138.363C330.445 138.363 331.574 137.895 332.395 136.953C333.215 136.012 333.637 134.742 333.637 133.133V115.879H344.316V133.59C344.316 136.473 343.684 138.984 342.414 141.156C341.156 143.328 339.367 144.988 337.047 146.188C334.734 147.379 332.055 147.969 329.023 147.969Z" fill="black"/>
<path d="M361.586 136.492C362.906 137.855 364.555 138.543 366.547 138.543C368.535 138.543 370.195 137.875 371.516 136.492C372.836 135.141 373.496 133.441 373.496 131.41C373.496 130.41 373.305 129.469 372.945 128.598C372.574 127.719 372.098 126.945 371.477 126.316C370.855 125.688 370.125 125.188 369.266 124.824C368.406 124.457 367.484 124.277 366.535 124.277C364.547 124.277 362.887 124.957 361.566 126.316C360.258 127.676 359.598 129.379 359.598 131.41C359.598 133.441 360.258 135.141 361.566 136.492H361.586ZM372.816 104.664H383.395V146.93H375.465L374.484 144.629C371.805 146.848 368.688 147.969 365.125 147.969C360.375 147.969 356.465 146.418 353.406 143.309C350.336 140.195 348.797 136.242 348.797 131.41C348.797 126.578 350.336 122.613 353.406 119.504C356.465 116.391 360.375 114.852 365.125 114.852C367.965 114.852 370.516 115.57 372.816 117.031V104.664Z" fill="black"/>
<path d="M390.125 115.879H400.805V146.93H390.125V115.879Z" fill="black"/>
<path d="M435.988 119.922L428.617 127.297C429.375 128.449 429.766 129.82 429.766 131.41C429.766 133.441 429.148 135.113 427.898 136.414C426.648 137.703 425.047 138.363 423.098 138.363C421.457 138.363 420.066 137.914 418.926 137.004L411.688 144.246C413.996 146.109 416.727 147.281 419.855 147.738L440.086 127.488C439.477 124.598 438.098 122.074 435.988 119.953V119.922Z" fill="black"/>
<path d="M440.457 129.969L422.477 147.961H423.105C428.117 147.961 432.277 146.391 435.586 143.266C438.875 140.145 440.527 136.203 440.527 131.41C440.527 130.91 440.508 130.441 440.465 129.969H440.457Z" fill="black"/>
<path d="M423.105 114.84C418.047 114.84 413.875 116.391 410.605 119.492C407.336 122.594 405.695 126.559 405.695 131.391C405.695 136.223 407.207 139.805 410.215 142.867L417.566 135.512C416.766 134.371 416.375 132.992 416.375 131.391C416.375 130.051 416.676 128.848 417.238 127.797C417.816 126.746 418.598 125.918 419.637 125.316C420.648 124.727 421.809 124.438 423.105 124.438C424.738 124.438 426.137 124.887 427.266 125.805L434.508 118.562C431.406 116.07 427.605 114.828 423.105 114.828V114.84Z" fill="black"/>
<path d="M457.406 147.969C453.195 147.969 449.879 146.961 447.438 144.93C445.008 142.898 443.766 140.176 443.738 136.762H454.016C454.016 137.844 454.348 138.664 455.008 139.246C455.648 139.824 456.508 140.105 457.586 140.105C458.129 140.105 458.629 140.023 459.078 139.855C459.539 139.676 459.918 139.406 460.195 139.016C460.477 138.633 460.629 138.195 460.629 137.695C460.629 137.113 460.367 136.645 459.848 136.254C459.336 135.883 458.746 135.594 458.098 135.422C457.445 135.242 456.527 135.074 455.309 134.871C454.098 134.684 453.086 134.492 452.266 134.293C451.445 134.102 450.477 133.762 449.367 133.281C448.246 132.789 447.355 132.23 446.656 131.582C445.957 130.941 445.379 130.051 444.887 128.949C444.387 127.84 444.148 126.547 444.148 125.098C444.148 121.984 445.355 119.504 447.766 117.652C450.168 115.789 453.379 114.859 457.355 114.859C461.336 114.859 464.477 115.812 466.867 117.742C469.266 119.652 470.477 122.215 470.516 125.387H460.516C460.516 124.746 460.367 124.195 460.086 123.746C459.809 123.305 459.418 122.977 458.945 122.766C458.457 122.543 457.898 122.453 457.246 122.453C456.355 122.453 455.676 122.664 455.148 123.086C454.637 123.504 454.367 124.066 454.367 124.758C454.367 125.066 454.426 125.336 454.547 125.566C454.668 125.797 454.867 125.996 455.148 126.168C455.438 126.348 455.707 126.477 455.926 126.598C456.156 126.727 456.539 126.828 457.047 126.949C457.559 127.066 457.977 127.156 458.289 127.207C458.598 127.258 459.066 127.359 459.727 127.469C460.539 127.609 461.098 127.719 461.418 127.789C461.746 127.84 462.309 127.957 463.117 128.156C463.926 128.348 464.516 128.508 464.898 128.648C465.266 128.777 465.809 129 466.469 129.309C467.137 129.617 467.648 129.93 467.988 130.219C468.336 130.531 468.738 130.918 469.227 131.41C469.707 131.891 470.059 132.391 470.289 132.93C470.516 133.473 470.719 134.113 470.898 134.852C471.066 135.613 471.148 136.402 471.148 137.242C471.148 140.496 469.898 143.105 467.387 145.059C464.879 147.008 461.559 148 457.406 148V147.969Z" fill="black"/>
</g>
</g>
</g>
<defs>
<clipPath id="clip0_1_4">
<rect width="626" height="148" fill="white"/>
</clipPath>
<clipPath id="clip1_1_4">
<rect width="626" height="148" fill="white"/>
</clipPath>
<clipPath id="clip2_1_4">
<rect width="626" height="148" fill="white"/>
</clipPath>
</defs>
</svg>
